<svg xmlns="http://www.w3.org/2000/svg" width="80" height="80" viewBox="0 0 80 80">
    <path fill="none" fill-rule="evenodd" stroke="#2B65D9" stroke-linecap="round" stroke-linejoin="round" stroke-width="3" d="M34.5 10.5c-2.24-1.852-7-6-10-1s3 6.5 7 7m22-7c-3.333-5.333-8.667-2.667-16 8 14 0 19.333-2.667 16-8zm11 34c.333 3.737.5 7.237.5 10.5 0 3.056-.146 8.074-.439 15.054a1.55 1.55 0 0 1-1.507 1.485c-15.166.401-27.351.555-36.554.461-8.195-.084-12.048-.343-11.56-.78a1.55 1.55 0 0 0 .517-1.222C15.152 61.858 15 56.692 15 53.5c0-3.34.167-6.673.5-10m-3.704-19.734c-.67-.437 3.065-.692 11.204-.766 9.197-.084 23.395.07 42.596.46a1.55 1.55 0 0 1 1.509 1.72c-.07.636-.105 1.41-.105 2.32 0 1.753.13 4.55.388 8.391a1.55 1.55 0 0 1-1.504 1.654C54.767 37.848 46.14 38 40 38c-6.159 0-14.823-.153-25.992-.458a1.55 1.55 0 0 1-1.508-1.55V25.065a1.55 1.55 0 0 0-.704-1.299zM45.5 38.5c-.333 6.222-.5 11.056-.5 14.5 0 3.444.167 7.111.5 11m0-39.5V32m-11-7.5v8m0 6c-.333 9.667-.5 16.167-.5 19.5 0 3.333.167 5.167.5 5.5"/>
</svg>
