<svg xmlns="http://www.w3.org/2000/svg" width="80" height="80" viewBox="0 0 80 80">
    <path fill="none" fill-rule="evenodd" stroke="#2B65D9" stroke-linecap="round" stroke-linejoin="round" stroke-width="3" d="M29.915 55.945c13.165 0 22.777-11.726 22.777-24.884 0-12.35-12.327-22.095-24.366-23.296-.789-.079 1.338.53.53.53-13.166 0-24.368 10.589-23.838 24.884.53 14.295 11.732 22.766 24.897 22.766zm14.359-31.49c-9.288 3.255-15.948 12.095-15.948 22.49 0 .9.025 1.757.08 2.578m5.746 12.776c.753.734.745 2.017 1.59 2.647 3.974 2.967 11.078 5.824 16.42 5.824 4.676 0 6.915-.323 10.595-2.648C69.44 63.902 76 55.43 76 46.944c0-11.577-7.058-21.673-18.01-23.825M34.682 46.415l1.06 1.588m1.059-9c.645 1.143 1.175 2.026 1.59 2.647.414.621 1.117 1.405 2.109 2.35m.539-10.292c.883 1.236 1.59 2.295 2.119 3.177.529.882.882 1.587 1.059 2.118m2.119-8.472l.53 1.589"/>
</svg>
