<svg xmlns="http://www.w3.org/2000/svg" width="80" height="80" viewBox="0 0 80 80">
    <path fill="none" fill-rule="evenodd" stroke="#2B65D9" stroke-linecap="round" stroke-linejoin="round" stroke-width="3" d="M70.01 17.5c-2.479 0-5.13-1.929-4.489-4.5.642-2.571 2.01-4.5 4.49-4.5 2.48 0 4.489.643 4.489 4.5s-2.01 4.5-4.49 4.5zm-53.019 4c-3.559 0-6.444-3.134-6.444-7 0-.805-.23-2.28 0-3 .875-2.738 3.626-4 6.444-4 3.56 0 5.525 3 6.445 7 .92 4-2.885 7-6.445 7zM8.5 39.5c-1.933 0-4-1.567-4-3.5S6 32 8 32.5s3 1.5 3.5 3.5-1.067 3.5-3 3.5zm29.5 28c-.318 0-1.207.08-1.5 0-1.487-.404-2-1.885-2-3.5a3.5 3.5 0 0 1 3.5-3.5c1.933 0 3.5 1 3.5 3.5s-1.567 3.5-3.5 3.5zm26.492-21c-1.238 0-3.394-1.39-4.265-2.143-1.061-.917-.71-1.34-.71-2.857 0-2.761 2.227-5 4.975-5 2.748 0 5.687 1.429 4.976 5-.71 3.571-2.228 5-4.976 5zM40 18.5c-2.761 0-5.5-2.016-5.5-4.503 0-2.488 2-4.054 5-4.504 3-.45 5.5 1.566 5.5 4.053S42.761 18.5 40 18.5zm-26 52c-3 0-4.5-2.015-4.5-4.5s2-5 4.5-4.5 4.5 2.015 4.5 4.5-1.5 4.5-4.5 4.5zm50 5a5.5 5.5 0 0 1-5.5-5.5c0-3.038 2-5 5.5-5.5s5.5 2.462 5.5 5.5c0 2.5-1.717 4.331-4 5-.491.144-.962.5-1.5.5zm-24-23C33 52 27.5 46.904 27.5 40S32 28.5 40 27.5c1.167-.146-.027.5 1 .5 6 0 11.5 6.104 11.5 12 0 6.904-5.5 13-12.5 12.5zm8.5-22a67.649 67.649 0 0 1 4.5-4c1.437-1.158 4.27-3.158 8.5-6m-21 7c-.333-.333-.5-1.167-.5-2.5m7.5 25.5c1.436 2.576 2.602 4.41 3.5 5.5.898 1.09 2.398 2.924 4.5 5.5M31.032 49.327c-2.899 3.05-5.076 5.275-6.532 6.673-1.456 1.398-2.29 2.065-2.5 2m5.527-18.676c-5.018-.55-8.194-.99-9.527-1.324"/>
</svg>
